<?xml version="1.0" encoding="UTF-8"?>
<svg version="1.1" xmlns="http://www.w3.org/2000/svg" viewBox="172 110 680 680">
<path d="M0 0 C5.95071238 4.44371379 9.26237831 11.12827858 10.40234375 18.40234375 C10.68412293 26.26765822 8.7710527 32.96340152 3.8046875 39.09765625 C-1.1109042 44.31462672 -6.05584906 46.39476356 -13.0078125 47.78515625 C-13.0078125 74.51515625 -13.0078125 101.24515625 -13.0078125 128.78515625 C59.9221875 128.78515625 132.8521875 128.78515625 207.9921875 128.78515625 C208.3221875 126.47515625 208.6521875 124.16515625 208.9921875 121.78515625 C212.7485053 114.70594194 218.67069616 109.8782405 225.9921875 106.78515625 C236.34149839 105.43841122 243.75094053 107.25739387 252.2421875 112.97265625 C258.05485948 118.91743441 260.31139923 123.80498474 260.6171875 132.22265625 C260.27260716 141.28149192 257.76329942 147.47666545 251.1796875 153.72265625 C244.35072491 159.13476865 237.64806787 160.78072077 228.9921875 159.78515625 C222.87549852 158.440829 217.34945884 155.27277331 212.9921875 150.78515625 C210.39797121 146.66266403 208.52958546 142.39735014 206.9921875 137.78515625 C134.3921875 137.45515625 61.7921875 137.12515625 -13.0078125 136.78515625 C-13.0078125 181.66515625 -13.0078125 226.54515625 -13.0078125 272.78515625 C-15.6478125 272.78515625 -18.2878125 272.78515625 -21.0078125 272.78515625 C-21.0078125 198.53515625 -21.0078125 124.28515625 -21.0078125 47.78515625 C-22.9878125 47.45515625 -24.9678125 47.12515625 -27.0078125 46.78515625 C-34.31498585 43.43448962 -39.26721917 37.80990146 -43.0078125 30.78515625 C-45.25251007 22.38734652 -44.83983861 14.62393154 -40.5625 7.01171875 C-30.75173413 -7.03887559 -13.95268188 -8.4421869 0 0 Z " fill="#24272C" transform="translate(589.0078125,315.21484375)"/>
<path d="M0 0 C2.64 0 5.28 0 8 0 C8 74.25 8 148.5 8 225 C10.31 225.33 12.62 225.66 15 226 C22.71436039 229.51648289 26.67683769 234.91859552 30.10546875 242.41796875 C32.16801283 248.37142567 31.78635253 254.8708137 29.4375 260.6875 C26.13828912 267.14700763 21.36045443 273.41026594 14.5625 276.37109375 C7.09554385 278.20368512 -2.09318519 278.53255647 -9.0625 275 C-16.3823243 270.01748097 -21.33167035 263.76604792 -23 255 C-24.35775534 246.59022971 -21.74755746 239.95106514 -17 233 C-14.5406819 230.55952725 -12.0140878 228.69618706 -9 227 C-8.36320312 226.62101563 -7.72640625 226.24203125 -7.0703125 225.8515625 C-5 225 -5 225 0 225 C0 197.28 0 169.56 0 141 C-72.93 141 -145.86 141 -221 141 C-221.495 143.97 -221.495 143.97 -222 147 C-225.16539513 154.11559897 -230.61278926 159.73696256 -237.75 162.875 C-244.85815623 165.15290335 -251.60958467 165.0039236 -258.375 161.8125 C-265.32546462 157.88158952 -271.15260155 151.8094291 -273.62109375 144.046875 C-275.25145665 135.23955379 -273.5417707 128.50081263 -268.75 121.05859375 C-264.2069812 115.08297527 -258.21990537 111.58382186 -250.78125 110.5546875 C-241.05758991 110.21390502 -233.69040355 112.70780465 -226.5078125 119.2890625 C-222.83101339 123.4611817 -221 127.45465586 -221 133 C-148.07 133 -75.14 133 0 133 C0 89.11 0 45.22 0 0 Z " fill="#24272C" transform="translate(448,311)"/>
<path d="M0 0 C2.64 0 5.28 0 8 0 C8 91.41 8 182.82 8 277 C5.36 277 2.72 277 0 277 C0 185.59 0 94.18 0 0 Z " fill="#24272C" transform="translate(508,311)"/>
</svg>
